REM MD5 252174096b52d267fa7b1f988ef74834
FILE "Super Lite Best Vol. 2 - Sanvein & Bomb Boat (Korea) (En,Ko).bin" BINARY
  TRACK 01 MODE2/2352
    INDEX 01 00:00:00
  TRACK 02 AUDIO
    INDEX 00 18:42:50
    INDEX 01 18:44:50
  TRACK 03 AUDIO
    INDEX 00 19:44:74
    INDEX 01 19:46:74
  TRACK 04 AUDIO
    INDEX 00 21:59:31
    INDEX 01 22:01:31
REM LEADOUT 25:11:37
